<svg width="211" height="76" viewBox="0 0 211 76" fill="none" xmlns="http://www.w3.org/2000/svg">
<g clip-path="url(#clip0_502_11)">
<path d="M49.0459 1.725C41.6459 -0.575 33.7459 -0.575 26.3459 1.725L37.7459 34.025L49.0459 1.725Z" fill="url(#paint0_linear_502_11)"/>
<path d="M63.0461 9.82501L43.6461 53.225H31.7461L12.3461 9.82501C-3.05391 23.825 -4.15391 47.725 9.84609 63.125C23.8461 78.525 47.7461 79.625 63.1461 65.625C78.5461 51.625 79.6461 27.725 65.6461 12.325C64.8461 11.525 64.0461 10.625 63.0461 9.82501Z" fill="url(#paint1_linear_502_11)"/>
<path d="M31.7459 53.225H43.6459L63.0459 9.82501C59.0459 6.22501 54.2459 3.42501 49.0459 1.82501L37.7459 34.125L26.3459 1.82501C21.1459 3.42501 16.3459 6.22501 12.3459 9.92501L31.7459 53.225Z" fill="url(#paint2_linear_502_11)"/>
<path d="M115.643 18.43H127.283V60.137H115.643V18.43Z" fill="#F9FCFD"/>
<path d="M127.223 11.46C127.167 12.9599 126.533 14.3798 125.453 15.4212C124.373 16.4627 122.932 17.0445 121.433 17.0445C119.934 17.0445 118.493 16.4627 117.413 15.4212C116.333 14.3798 115.699 12.9599 115.643 11.46C115.699 9.9601 116.333 8.54021 117.413 7.49878C118.493 6.45735 119.934 5.87549 121.433 5.87549C122.932 5.87549 124.373 6.45735 125.453 7.49878C126.533 8.54021 127.167 9.9601 127.223 11.46Z" fill="#F9FCFD"/>
<path d="M102.476 18.43C102.946 15.17 104.924 13.99 108.72 13.35V3.17102C97.6499 3.25102 91.5769 8.75102 90.8369 18.43H83.7339V28.37H90.7279V60.137H102.376V28.369H110.519V18.43H102.476Z" fill="#F9FCFD"/>
<path d="M210.204 31.9V60.138H198.595V34.969C198.595 30.849 196.187 28.189 192.231 28.189C188.445 28.189 185.458 30.449 185.458 35.369V60.137H173.778V34.969C173.778 30.849 171.441 28.189 167.405 28.189C163.369 28.189 160.721 30.769 160.721 35.929V60.137H149.112V18.43H160.102V23.27C162.439 19.56 166.306 17.27 171.551 17.27C177.105 17.27 181.141 19.53 183.4 23.4C185.977 19.69 190.083 17.27 195.888 17.27C204.679 17.27 210.234 23 210.234 31.869" fill="#F9FCFD"/>
<path d="M132.368 9.31H143.977V60.137H132.368V9.31Z" fill="#F7FBFC"/>
</g>
<defs>
<linearGradient id="paint0_linear_502_11" x1="-21.3091" y1="88.2838" x2="46.6192" y2="-1.29693" gradientUnits="userSpaceOnUse">
<stop offset="0.01" stop-color="#16217C"/>
<stop offset="0.55" stop-color="#0009FF"/>
<stop offset="1" stop-color="#00FF5B"/>
</linearGradient>
<linearGradient id="paint1_linear_502_11" x1="1.49935" y1="100.543" x2="54.8163" y2="8.19431" gradientUnits="userSpaceOnUse">
<stop offset="0.01" stop-color="#16217C"/>
<stop offset="0.55" stop-color="#0009FF"/>
<stop offset="1" stop-color="#00FF5B"/>
</linearGradient>
<linearGradient id="paint2_linear_502_11" x1="37.7259" y1="1.79501" x2="37.7259" y2="53.245" gradientUnits="userSpaceOnUse">
<stop stop-color="#EBF5F7"/>
<stop offset="0.15" stop-color="#F1F8FA"/>
<stop offset="0.54" stop-color="#FCFDFE"/>
<stop offset="1" stop-color="white"/>
</linearGradient>
<clipPath id="clip0_502_11">
<rect width="210.27" height="75.45" fill="white"/>
</clipPath>
</defs>
</svg>
